<?xml version="1.0" encoding="utf-8"?>
<svg viewBox="-0.782 -0.587 102.151 102.294" xmlns="http://www.w3.org/2000/svg">
  <defs>
    <style>.cls-1{fill-rule:evenodd;}</style>
  </defs>
  <path class="cls-1" d="M37.384,59.141a14.337,14.337,0,1,0,4.2,10.137,14.29,14.29,0,0,0-4.2-10.137Zm45.505,0a14.337,14.337,0,1,0,4.2,10.137,14.294,14.294,0,0,0-4.2-10.137ZM52.78,70.359a2.315,2.315,0,1,1-4.629.036l-.125-11.729L38.4,47.392a2.317,2.317,0,0,1,.254-3.267l.056-.046,13.7-12.106a2.316,2.316,0,0,1,3.148.074h0L66.124,42.358H76.83a2.324,2.324,0,1,1,0,4.647H65.187V47a2.311,2.311,0,0,1-1.616-.656l-9.707-9.475L43.4,46.112,52.092,56.29l0,0a2.313,2.313,0,0,1,.556,1.487l.134,12.58Zm19.021-52a6.745,6.745,0,1,0,1.975,4.769A6.723,6.723,0,0,0,71.8,18.363Z"/>
</svg>