<?xml version="1.0" encoding="utf-8"?>
<svg viewBox="-1.434 -0.478 103.824 103.728" xmlns="http://www.w3.org/2000/svg">
  <path d="M64.22,84.05a9.4,9.4,0,0,1,4.47-3.73h0V69.19A6.74,6.74,0,0,1,69.05,67c-.79-.21-1.54-.39-2.2-.55a.23.23,0,0,1-.17-.23V62.94a25.15,25.15,0,0,0,4.21-8.34c2.17-2.14,3.13-5.53,3.64-7.36.84-3,1.69-7.27-.64-10.35l-.1-.13c1.12-5.4,2.52-18.15-7.17-24.61A6,6,0,0,0,68.33,7.8a.57.57,0,0,0-.21-.4.61.61,0,0,0-.43-.13c-.12,0-12.24,1.38-18.07.17-6-1.24-12.58,3.31-13.93,8A8.79,8.79,0,0,0,30,18.65c-2.65,3.26-3.45,8.46-2.41,15.42.07.9.18,1.78.33,2.69l-.1.13c-2.32,3.07-1.47,7.38-.63,10.35.52,1.83,1.48,5.22,3.64,7.36A25.26,25.26,0,0,0,35,63v3.23a.22.22,0,0,1-.17.23c-8.29,1.91-27.57,8-27.57,23.3a3,3,0,0,0,3,3h54a8.38,8.38,0,0,1-.92-2l-.05-.19a8.11,8.11,0,0,1-.19-.84c0-.09,0-.18,0-.27A8.08,8.08,0,0,1,63,88.37a8.17,8.17,0,0,1,.92-3.76Q64.05,84.33,64.22,84.05Zm-29.1-33c-.31,0-1.42-.48-2.79-5.31-1.07-3.77-.62-5.14-.25-5.62a1.23,1.23,0,0,1,1.06-.46h.26a.57.57,0,0,0,.6-.53c0-.08.67-8.2,5.48-11.13,2.41-1.46,5.49-1.41,9.18.16,7.54,3.22,13.15,3,16.57,2.25,3.9,2.88,2.78,7.47,2.51,8.37l0,.11a.57.57,0,0,0,.09.54.58.58,0,0,0,.51.22,1.38,1.38,0,0,1,1.29.45c.36.48.81,1.85-.25,5.62-1.37,4.83-2.48,5.28-2.79,5.31a.57.57,0,0,0-.52.48c-.8,5.15-4.89,11.54-11.18,13.81a12,12,0,0,1-8.07,0c-6.54-2.31-10.36-8.78-11.14-13.82A.57.57,0,0,0,35.12,51.08ZM50.84,78.16a15.9,15.9,0,0,1-13-6.48,6.21,6.21,0,0,0,2.83-3.37A20.18,20.18,0,0,0,45,70.48a17.53,17.53,0,0,0,11.69,0A20.61,20.61,0,0,0,61,68.26a6.2,6.2,0,0,0,2.85,3.42A15.9,15.9,0,0,1,50.84,78.16ZM92.07,63.85a1.78,1.78,0,0,1,.67,1.4V85c0,2.42-2.32,4.39-5.17,4.39s-5.17-2-5.17-4.39,2.32-4.39,5.17-4.39l.53,0V72.23l-10.37,2.3V88.37c0,2.42-2.32,4.39-5.17,4.39s-5.17-2-5.17-4.39S69.72,84,72.57,84l.53,0V69.19A2.24,2.24,0,0,1,74.87,67l15.7-3.49a1.83,1.83,0,0,1,.38,0A1.8,1.8,0,0,1,92.07,63.85Z"/>
</svg>