<?xml version="1.0" encoding="utf-8"?>
<svg viewBox="-8.098 -6.644 116.712 116.156" xmlns="http://www.w3.org/2000/svg">
  <path d="m77.75 61.438h-0.1875v-9.8125s-0.03125-0.10938-0.03125-0.15625c0-0.10938-0.03125-0.20312-0.0625-0.3125-0.03125-0.09375-0.0625-0.1875-0.10938-0.26562-0.046875-0.09375-0.10938-0.17188-0.17188-0.25s-0.125-0.14062-0.20312-0.20312-0.15625-0.10938-0.25-0.17188c-0.09375-0.046875-0.1875-0.09375-0.28125-0.125-0.046875-0.015625-0.09375-0.046875-0.15625-0.0625-1.8906-0.375-3.7969-0.54688-5.7031-0.5625-3.9062-3.1094-9.6094-4.0312-11.625-4.2656l-1.6406-2.25c2.7969-1.6719 4.9688-4.2812 6.0938-7.3906 2.9844-0.34375 5.3125-2.8594 5.3125-5.9375 0-2.4531-1.4844-4.5469-3.625-5.4844 0.34375-2.375-0.046875-5.9375-1.7031-9.0469-2.9844-5.5469-8.6562-6.8906-10.312-7.1719-5.2344-0.875-10.609 1.2188-14.297 5.4688-1-0.09375-2 0.17188-2.8438 0.76562-1.1875 0.84375-1.8438 2.2188-1.7656 3.6562 0.125 2.4844 0.54688 4.6562 0.9375 6.2188-2.2656 0.85938-3.8594 3.0156-3.8594 5.5781 0 3.0781 2.3281 5.5938 5.3125 5.9375 1.125 3.1094 3.2969 5.7031 6.0938 7.3906l-1.6406 2.25c-2.0312 0.23438-7.7344 1.1562-11.625 4.2656-1.9062 0.015625-3.8125 0.20312-5.7031 0.5625-0.0625 0-0.09375 0.046875-0.15625 0.0625-0.10938 0.03125-0.1875 0.0625-0.28125 0.125-0.09375 0.046875-0.17188 0.10938-0.25 0.17188s-0.14062 0.125-0.20312 0.20312-0.125 0.15625-0.17188 0.25c-0.046875 0.078125-0.078125 0.17188-0.10938 0.26562-0.03125 0.10938-0.046875 0.20312-0.0625 0.3125 0 0.046875-0.03125 0.09375-0.03125 0.15625v9.8125h-0.1875c-2.5781 0-4.6875 2.1094-4.6875 4.6875v3.5c0 2.5781 2.1094 4.6875 4.6875 4.6875h0.1875v11.438s0.03125 0.09375 0.03125 0.14062v0.15625c0 0.0625 0.046875 0.09375 0.0625 0.15625 0.03125 0.09375 0.0625 0.1875 0.10938 0.28125s0.10938 0.17188 0.17188 0.25 0.125 0.14062 0.1875 0.20312c0.078125 0.0625 0.17188 0.125 0.26562 0.17188 0.078125 0.046875 0.17188 0.078125 0.25 0.10938 0.10938 0.03125 0.20312 0.046875 0.3125 0.0625 0.0625 0 0.10938 0.03125 0.15625 0.03125s0.09375-0.03125 0.15625-0.03125h0.15625c3.5781-0.70312 7.2031-0.70312 10.766 0 3.8438 0.75 7.5625 2.3438 10.781 4.625 0.0625 0.046875 0.125 0.0625 0.1875 0.09375s0.10938 0.0625 0.17188 0.078125c0.17188 0.0625 0.35938 0.10938 0.54688 0.10938h6.5c0.1875 0 0.35938-0.046875 0.54688-0.10938 0.0625-0.015625 0.10938-0.046875 0.17188-0.078125s0.125-0.046875 0.1875-0.09375c3.2031-2.2656 6.9375-3.8594 10.781-4.625 3.5625-0.70312 7.1875-0.70312 10.766 0h0.15625c0.046875 0 0.09375 0.03125 0.15625 0.03125s0.10938-0.03125 0.15625-0.03125c0.10938 0 0.20312-0.03125 0.3125-0.0625 0.09375-0.03125 0.1875-0.0625 0.26562-0.10938 0.09375-0.046875 0.17188-0.10938 0.25-0.17188s0.14062-0.125 0.20312-0.20312 0.10938-0.15625 0.17188-0.25c0.046875-0.09375 0.09375-0.1875 0.125-0.28125 0.015625-0.046875 0.046875-0.09375 0.0625-0.15625v-0.15625c0-0.046875 0.03125-0.09375 0.03125-0.14062v-11.438h0.1875c2.5781 0 4.6875-2.1094 4.6875-4.6875v-3.5c0-2.5781-2.1094-4.6875-4.6875-4.6875zm-24.953-6.5h-5.6094c-3.4688-2.3594-7.4219-4.0469-11.516-4.8438-0.26562-0.046875-0.53125-0.078125-0.78125-0.10938 2.625-1.0469 5.3125-1.4688 6.4844-1.6094 1.2188 0.98438 4.3438 3.0938 8.625 3.0938s7.4062-2.1094 8.625-3.0938c1.1719 0.14062 3.8594 0.54688 6.4844 1.6094-0.26562 0.046875-0.53125 0.0625-0.78125 0.10938-4.0938 0.79688-8.0625 2.4844-11.516 4.8438zm11.422-22.766c0.046875-0.46875 0.078125-0.92188 0.078125-1.4062v-3.4688c0.79688 0.51562 1.3125 1.3906 1.3125 2.4062s-0.5625 1.9531-1.3906 2.4688zm-26.453-15.391c0.14062-0.10938 0.53125-0.32812 1.0469-0.125 0.64062 0.25 1.3906 0.0625 1.8125-0.5 2.9844-3.8594 7.5625-5.7969 11.953-5.0781 1.3125 0.21875 5.7656 1.2656 8.0781 5.5625 1.6094 3.0156 1.5781 6.2656 1.3125 7.5469-14.016 0.53125-19.297-4.3906-19.344-4.4375-0.29688-0.29688-0.70312-0.45312-1.1094-0.45312-0.17188 0-0.32812 0.03125-0.5 0.078125-1.2031 0.40625-2.2812 1.5-3.1562 2.6719-0.25-1.2344-0.46875-2.7031-0.54688-4.3125-0.03125-0.54688 0.3125-0.85938 0.45312-0.96875zm-3.375 12.922c0-1.0156 0.53125-1.8906 1.3125-2.4062v3.4688c0 0.46875 0.03125 0.92188 0.0625 1.3906-0.82812-0.5-1.3906-1.4062-1.3906-2.4531zm4.4375 1.0625v-4.25c0.6875-1.4219 1.7188-3 2.5469-3.75 2.1719 1.5625 8.1875 4.8438 19.797 4.5781v3.4219c0 6.1562-5.0156 11.172-11.172 11.172s-11.172-5.0156-11.172-11.172zm11.172 14.297c1.5469 0 3.0312-0.25 4.4219-0.70312l1.5312 2.0938c-1.2031 0.79688-3.3125 1.9062-5.9688 1.9062s-4.7656-1.0938-5.9688-1.9062l1.5312-2.0938c1.3906 0.45312 2.875 0.70312 4.4219 0.70312zm-29.312 24.562v-3.5c0-0.85938 0.70312-1.5625 1.5625-1.5625h3.5625c1.7188 0 3.125 1.4062 3.125 3.125v0.375c0 1.7188-1.4062 3.125-3.125 3.125h-3.5625c-0.85938 0-1.5625-0.70312-1.5625-1.5625zm4.875 14.312v-9.625h0.25c3.4531 0 6.25-2.7969 6.25-6.25v-0.375c0-3.4531-2.7969-6.25-6.25-6.25h-0.25v-8.4688c3.1719-0.46875 6.3594-0.4375 9.5156 0.1875 3.5938 0.70312 7.0625 2.1719 10.109 4.2031v30.438c-2.9531-1.6875-6.1875-2.9219-9.5156-3.5781-3.3438-0.65625-6.7344-0.71875-10.109-0.26562zm26.125 5.125h-3.375v-31h3.375zm22.75-5.125c-3.375-0.45312-6.7656-0.39062-10.109 0.26562-3.3281 0.65625-6.5625 1.8906-9.5156 3.5781v-30.438c3.0625-2.0312 6.5312-3.5 10.109-4.2031 3.1406-0.625 6.3438-0.65625 9.5156-0.1875v8.4688h-0.25c-3.4531 0-6.25 2.7969-6.25 6.25v0.375c0 3.4531 2.7969 6.25 6.25 6.25h0.25zm4.875-14.312c0 0.85938-0.70312 1.5625-1.5625 1.5625h-3.5625c-1.7188 0-3.125-1.4062-3.125-3.125v-0.375c0-1.7188 1.4062-3.125 3.125-3.125h3.5625c0.85938 0 1.5625 0.70312 1.5625 1.5625z" transform="matrix(0.9999999999999999, 0, 0, 0.9999999999999999, 0, -3.552713678800501e-15)"/>
</svg>